<?xml version="1.0" encoding="UTF-8"?>
<svg width="128px" height="127px" viewBox="0 0 128 127" version="1.1" xmlns="http://www.w3.org/2000/svg" xmlns:xlink="http://www.w3.org/1999/xlink">
    <!-- Generator: Sketch 51.1 (57501) - http://www.bohemiancoding.com/sketch -->
    <title>logo</title>
    <desc>Created with Sketch.</desc>
    <defs></defs>
    <g id="Concept-2" stroke="none" stroke-width="1" fill="none" fill-rule="evenodd">
        <g id="logo">
            <path d="M89.2661017,26.7915254 C72.7410469,32.4696489 73.6627119,74.4907215 66.1288136,84.4271186 C58.5949153,94.3635158 40.8372881,106.49661 46.5254237,118.513559 C52.2135593,130.530508 92.823877,132.981104 114.276271,100.664407 C145.474576,53.6661017 115.552542,17.759322 89.2661017,26.7915254 Z" id="Bean" fill="#514C45"></path>
            <path d="M18.5173725,46.9564019 C18.4769518,45.7678368 18.4567415,44.5425344 18.4567415,43.280495 C18.4567415,22.0350012 33.8490005,3.74456213 53.777757,1.38646878 C86.2056824,-2.4506033 96.4645135,7.25042029 111.956008,3.88963001 C127.447503,0.528839725 110.943909,18.4065706 96.9413316,18.4065706 C82.9387539,18.4065706 73.3042381,27.1620032 66.0439641,48.6713828 C61.4216532,62.3654996 49.0686,70.0404104 28.9848045,71.6961151 C29.6051744,76.3558668 30.905554,81.9324096 35.7152121,90.4152542 C25.5728814,90.4152542 11.8101695,90.4152542 4.21355932,77.4542373 C-3.38305085,64.4932203 1.74418836,43.6039263 4.21355932,35.1220339 C6.68293029,26.6401415 8.42757659,36.3046545 10.2644068,39.0813559 C11.3829271,40.772202 14.7901158,43.03214 18.5173725,46.9564019 Z" id="Combined-Shape" fill="#74BA00"></path>
            <path d="M70.5881356,72.8457627 C64.2186441,77.2635593 62.5538136,88.1033898 52.7,88.1033898 C42.2389831,88.1033898 26.5258475,76.4919492 29.5050847,57.6601695 C32.484322,38.8283898 51.3110169,25.6936441 64.8101695,21.3508475 C67.0282648,20.6372666 67.9343802,19.7035346 64.8101695,19.8881356 C52.1317797,20.6372666 21.2474576,36.4483051 21.2474576,61.7211864 C21.2474576,86.9940678 39.1932203,98.5576271 52.7,98.5576271 C66.2067797,98.5576271 76.9576271,68.4279661 70.5881356,72.8457627 Z" id="Stem" fill="#5B9102"></path>
        </g>
    </g>
</svg>