<?xml version="1.0" encoding="UTF-8"?>
<svg width="128px" height="128px" viewBox="0 0 128 128" version="1.1" xmlns="http://www.w3.org/2000/svg" xmlns:xlink="http://www.w3.org/1999/xlink">
    <!-- Generator: Sketch 51.1 (57501) - http://www.bohemiancoding.com/sketch -->
    <title>logo-rectange</title>
    <desc>Created with Sketch.</desc>
    <defs></defs>
    <g id="Concept-2" stroke="none" stroke-width="1" fill="none" fill-rule="evenodd">
        <g id="logo-rectange" transform="translate(0.000000, 0.000000)">
            <rect id="Rectangle" fill="#78D6FF" x="0" y="0" width="128" height="128" rx="20"></rect>
            <g id="Group-Copy-4" transform="translate(6.500000, 8.500000)">
                <path d="M78.777774,23.643653 C64.1943319,28.654625 65.0077057,65.7384283 58.3590034,74.5073477 C51.7103011,83.2762671 36.0391078,93.9837826 41.0589154,104.588799 C46.0787231,115.193816 81.9175283,117.356478 100.849372,88.8368344 C128.382029,47.3605989 101.975687,15.6726891 78.777774,23.643653 Z" id="Bean" fill="#514C45"></path>
                <path d="M16.3416723,41.4392558 C16.3060009,40.3903412 16.2881652,39.3090059 16.2881652,38.1952498 C16.2881652,19.445997 29.8719095,3.3045945 47.4591352,1.22356552 C76.0769389,-2.16266948 85.1304079,6.39853158 98.8017282,3.43261762 C112.473048,0.46670366 97.908546,16.2438891 85.5512022,16.2438891 C73.1938585,16.2438891 64.6913509,23.9706015 58.2841233,42.9527348 C54.2049112,55.0378603 43.3032809,61.8110068 25.5792326,63.2721744 C26.1267121,67.3844282 27.2743035,72.3057547 31.5188504,79.7919068 C22.5681936,79.7919068 10.4225327,79.7919068 3.71848684,68.3537456 C-2.98555902,56.9155843 1.53925481,38.4806795 3.71848684,30.9953678 C5.89771887,23.510056 7.43737781,32.0390362 9.0583895,34.4894889 C10.0454892,35.9816689 13.05235,37.9760753 16.3416723,41.4392558 Z" id="Combined-Shape" fill="#74BA00"></path>
                <path d="M62.294377,64.2867441 C56.6732694,68.1854713 55.2040483,77.7516751 46.5080094,77.7516751 C37.2761104,77.7516751 23.4091909,67.5045216 26.0383825,50.8853833 C28.6675741,34.2662451 45.282225,22.6747673 57.1952935,18.842228 C59.1527735,18.2124894 59.9524248,17.3884663 57.1952935,17.5513775 C46.0065521,18.2124894 18.7509859,32.1658086 18.7509859,54.4692508 C18.7509859,76.772693 34.5882098,86.977591 46.5080094,86.977591 C58.4278089,86.977591 67.9154847,60.3880168 62.294377,64.2867441 Z" id="Stem" fill="#5B9102"></path>
            </g>
        </g>
    </g>
</svg>