<?xml version="1.0" encoding="UTF-8"?>
<svg width="383px" height="127px" viewBox="0 0 383 127" version="1.1" xmlns="http://www.w3.org/2000/svg" xmlns:xlink="http://www.w3.org/1999/xlink">
    <!-- Generator: Sketch 51.1 (57501) - http://www.bohemiancoding.com/sketch -->
    <title>wordmark</title>
    <desc>Created with Sketch.</desc>
    <defs></defs>
    <g id="Concept-2" stroke="none" stroke-width="1" fill="none" fill-rule="evenodd">
        <g id="wordmark">
            <g id="Group-Copy-5">
                <path d="M89.2661017,26.7915254 C72.7410469,32.4696489 73.6627119,74.4907215 66.1288136,84.4271186 C58.5949153,94.3635158 40.8372881,106.49661 46.5254237,118.513559 C52.2135593,130.530508 92.823877,132.981104 114.276271,100.664407 C145.474576,53.6661017 115.552542,17.759322 89.2661017,26.7915254 Z" id="Bean" fill="#514C45"></path>
                <path d="M18.5173725,46.9564019 C18.4769518,45.7678368 18.4567415,44.5425344 18.4567415,43.280495 C18.4567415,22.0350012 33.8490005,3.74456213 53.777757,1.38646878 C86.2056824,-2.4506033 96.4645135,7.25042029 111.956008,3.88963001 C127.447503,0.528839725 110.943909,18.4065706 96.9413316,18.4065706 C82.9387539,18.4065706 73.3042381,27.1620032 66.0439641,48.6713828 C61.4216532,62.3654996 49.0686,70.0404104 28.9848045,71.6961151 C29.6051744,76.3558668 30.905554,81.9324096 35.7152121,90.4152542 C25.5728814,90.4152542 11.8101695,90.4152542 4.21355932,77.4542373 C-3.38305085,64.4932203 1.74418836,43.6039263 4.21355932,35.1220339 C6.68293029,26.6401415 8.42757659,36.3046545 10.2644068,39.0813559 C11.3829271,40.772202 14.7901158,43.03214 18.5173725,46.9564019 Z" id="Combined-Shape" fill="#74BA00"></path>
                <path d="M70.5881356,72.8457627 C64.2186441,77.2635593 62.5538136,88.1033898 52.7,88.1033898 C42.2389831,88.1033898 26.5258475,76.4919492 29.5050847,57.6601695 C32.484322,38.8283898 51.3110169,25.6936441 64.8101695,21.3508475 C67.0282648,20.6372666 67.9343802,19.7035346 64.8101695,19.8881356 C52.1317797,20.6372666 21.2474576,36.4483051 21.2474576,61.7211864 C21.2474576,86.9940678 39.1932203,98.5576271 52.7,98.5576271 C66.2067797,98.5576271 76.9576271,68.4279661 70.5881356,72.8457627 Z" id="Stem" fill="#5B9102"></path>
            </g>
            <path d="M151,104.1 C151,102.566659 151.583327,101.016675 152.75,99.45 C153.916673,97.8833255 155.233326,97.1 156.7,97.1 C157.566671,97.1 158.549994,97.499996 159.65,98.3 C160.750005,99.100004 161.816662,99.9833285 162.85,100.95 C163.883338,101.916672 165.366657,102.799996 167.3,103.6 C169.233343,104.400004 171.366655,104.8 173.7,104.8 C176.900016,104.8 179.566656,104.066674 181.7,102.6 C183.833344,101.133326 184.9,98.966681 184.9,96.1 C184.9,94.09999 184.316672,92.3166745 183.15,90.75 C181.983328,89.1833255 180.45001,87.8833385 178.55,86.85 C176.649991,85.8166615 174.566678,84.8166715 172.3,83.85 C170.033322,82.8833285 167.750011,81.800006 165.45,80.6 C163.149989,79.399994 161.050009,78.0500075 159.15,76.55 C157.24999,75.0499925 155.716673,73.0500125 154.55,70.55 C153.383328,68.0499875 152.8,65.200016 152.8,62 C152.8,58.466649 153.51666,55.3500135 154.95,52.65 C156.38334,49.9499865 158.299988,47.8500075 160.7,46.35 C163.100012,44.8499925 165.666653,43.7500035 168.4,43.05 C171.133347,42.3499965 174.033318,42 177.1,42 C178.833342,42 180.666657,42.1166655 182.6,42.35 C184.533343,42.5833345 186.583323,42.966664 188.75,43.5 C190.916677,44.033336 192.683327,44.866661 194.05,46 C195.416674,47.133339 196.1,48.466659 196.1,50 C196.1,51.466674 195.633338,52.9833255 194.7,54.55 C193.766662,56.1166745 192.500008,56.9 190.9,56.9 C190.299997,56.9 188.66668,56.266673 186,55 C183.33332,53.733327 180.366683,53.1 177.1,53.1 C173.499982,53.1 170.716677,53.7833265 168.75,55.15 C166.783323,56.5166735 165.8,58.399988 165.8,60.8 C165.8,62.733343 166.599992,64.4166595 168.2,65.85 C169.800008,67.2833405 171.783321,68.4499955 174.15,69.35 C176.516679,70.2500045 179.08332,71.3833265 181.85,72.75 C184.61668,74.1166735 187.183321,75.599992 189.55,77.2 C191.916678,78.800008 193.899992,81.1166515 195.5,84.15 C197.100008,87.1833485 197.9,90.733313 197.9,94.8 C197.9,101.733368 195.716688,107.083315 191.35,110.85 C186.983312,114.616686 181.233369,116.5 174.1,116.5 C167.766635,116.5 162.333356,115.200013 157.8,112.6 C153.266644,109.999987 151,107.166682 151,104.1 Z M214.3,111.5 L214.3,46.6 C214.3,45.333327 214.866661,44.333337 216,43.6 C217.133339,42.866663 218.466659,42.5 220,42.5 L255.6,42.5 C256.93334,42.5 257.949996,43.066661 258.65,44.2 C259.350004,45.333339 259.7,46.633326 259.7,48.1 C259.7,49.700008 259.333337,51.066661 258.6,52.2 C257.866663,53.333339 256.866673,53.9 255.6,53.9 L227.3,53.9 L227.3,73.9 L242.5,73.9 C243.766673,73.9 244.766663,74.4166615 245.5,75.45 C246.233337,76.4833385 246.6,77.699993 246.6,79.1 C246.6,80.366673 246.250003,81.5166615 245.55,82.55 C244.849997,83.5833385 243.83334,84.1 242.5,84.1 L227.3,84.1 L227.3,104.2 L255.6,104.2 C256.866673,104.2 257.866663,104.766661 258.6,105.9 C259.333337,107.033339 259.7,108.399992 259.7,110 C259.7,111.466674 259.350004,112.766661 258.65,113.9 C257.949996,115.033339 256.93334,115.6 255.6,115.6 L220,115.6 C218.466659,115.6 217.133339,115.233337 216,114.5 C214.866661,113.766663 214.3,112.766673 214.3,111.5 Z M274.8,111.5 L274.8,46.6 C274.8,45.333327 275.366661,44.333337 276.5,43.6 C277.633339,42.866663 278.966659,42.5 280.5,42.5 L316.1,42.5 C317.43334,42.5 318.449996,43.066661 319.15,44.2 C319.850004,45.333339 320.2,46.633326 320.2,48.1 C320.2,49.700008 319.833337,51.066661 319.1,52.2 C318.366663,53.333339 317.366673,53.9 316.1,53.9 L287.8,53.9 L287.8,73.9 L303,73.9 C304.266673,73.9 305.266663,74.4166615 306,75.45 C306.733337,76.4833385 307.1,77.699993 307.1,79.1 C307.1,80.366673 306.750003,81.5166615 306.05,82.55 C305.349997,83.5833385 304.33334,84.1 303,84.1 L287.8,84.1 L287.8,104.2 L316.1,104.2 C317.366673,104.2 318.366663,104.766661 319.1,105.9 C319.833337,107.033339 320.2,108.399992 320.2,110 C320.2,111.466674 319.850004,112.766661 319.15,113.9 C318.449996,115.033339 317.43334,115.6 316.1,115.6 L280.5,115.6 C278.966659,115.6 277.633339,115.233337 276.5,114.5 C275.366661,113.766663 274.8,112.766673 274.8,111.5 Z M335.3,111.6 L335.3,46.5 C335.3,45.433328 335.833328,44.500004 336.9,43.7 C337.966672,42.899996 339.333325,42.5 341,42.5 L358.7,42.5 C365.833369,42.5 371.533312,44.333315 375.8,48 C380.066688,51.666685 382.2,57.466627 382.2,65.4 L382.2,92.7 C382.2,100.633373 380.066688,106.433315 375.8,110.1 C371.533312,113.766685 365.833369,115.6 358.7,115.6 L341,115.6 C339.333325,115.6 337.966672,115.200004 336.9,114.4 C335.833328,113.599996 335.3,112.666672 335.3,111.6 Z M348.3,104.2 L358.7,104.2 C365.700035,104.2 369.2,100.366705 369.2,92.7 L369.2,65.4 C369.2,57.733295 365.700035,53.9 358.7,53.9 L348.3,53.9 L348.3,104.2 Z" id="SEED" fill="#74BA00"></path>
        </g>
    </g>
</svg>