<?xml version="1.0" encoding="UTF-8"?>
<svg width="232px" height="223px" viewBox="0 0 232 223" version="1.1" xmlns="http://www.w3.org/2000/svg" xmlns:xlink="http://www.w3.org/1999/xlink">
    <!-- Generator: Sketch 51.1 (57501) - http://www.bohemiancoding.com/sketch -->
    <title>wordmark-stacked</title>
    <desc>Created with Sketch.</desc>
    <defs></defs>
    <g id="Concept-2" stroke="none" stroke-width="1" fill="none" fill-rule="evenodd">
        <g id="wordmark-stacked">
            <g id="Group-Copy-5" transform="translate(52.000000, 0.000000)">
                <path d="M89.2661017,26.7915254 C72.7410469,32.4696489 73.6627119,74.4907215 66.1288136,84.4271186 C58.5949153,94.3635158 40.8372881,106.49661 46.5254237,118.513559 C52.2135593,130.530508 92.823877,132.981104 114.276271,100.664407 C145.474576,53.6661017 115.552542,17.759322 89.2661017,26.7915254 Z" id="Bean" fill="#413D29"></path>
                <path d="M18.5173725,46.9564019 C18.4769518,45.7678368 18.4567415,44.5425344 18.4567415,43.280495 C18.4567415,22.0350012 33.8490005,3.74456213 53.777757,1.38646878 C86.2056824,-2.4506033 96.4645135,7.25042029 111.956008,3.88963001 C127.447503,0.528839725 110.943909,18.4065706 96.9413316,18.4065706 C82.9387539,18.4065706 73.3042381,27.1620032 66.0439641,48.6713828 C61.4216532,62.3654996 49.0686,70.0404104 28.9848045,71.6961151 C29.6051744,76.3558668 30.905554,81.9324096 35.7152121,90.4152542 C25.5728814,90.4152542 11.8101695,90.4152542 4.21355932,77.4542373 C-3.38305085,64.4932203 1.74418836,43.6039263 4.21355932,35.1220339 C6.68293029,26.6401415 8.42757659,36.3046545 10.2644068,39.0813559 C11.3829271,40.772202 14.7901158,43.03214 18.5173725,46.9564019 Z" id="Combined-Shape" fill="#74BA00"></path>
                <path d="M70.5881356,72.8457627 C64.2186441,77.2635593 62.5538136,88.1033898 52.7,88.1033898 C42.2389831,88.1033898 26.5258475,76.4919492 29.5050847,57.6601695 C32.484322,38.8283898 51.3110169,25.6936441 64.8101695,21.3508475 C67.0282648,20.6372666 67.9343802,19.7035346 64.8101695,19.8881356 C52.1317797,20.6372666 21.2474576,36.4483051 21.2474576,61.7211864 C21.2474576,86.9940678 39.1932203,98.5576271 52.7,98.5576271 C66.2067797,98.5576271 76.9576271,68.4279661 70.5881356,72.8457627 Z" id="Stem" fill="#5B9102"></path>
            </g>
            <path d="M0,210.1 C0,208.566659 0.5833275,207.016675 1.75,205.45 C2.9166725,203.883326 4.233326,203.1 5.7,203.1 C6.566671,203.1 7.5499945,203.499996 8.65,204.3 C9.7500055,205.100004 10.8166615,205.983329 11.85,206.95 C12.8833385,207.916672 14.366657,208.799996 16.3,209.6 C18.233343,210.400004 20.366655,210.8 22.7,210.8 C25.900016,210.8 28.566656,210.066674 30.7,208.6 C32.833344,207.133326 33.9,204.966681 33.9,202.1 C33.9,200.09999 33.3166725,198.316675 32.15,196.75 C30.9833275,195.183326 29.4500095,193.883339 27.55,192.85 C25.6499905,191.816662 23.566678,190.816671 21.3,189.85 C19.033322,188.883329 16.7500115,187.800006 14.45,186.6 C12.1499885,185.399994 10.0500095,184.050007 8.15,182.55 C6.2499905,181.049993 4.7166725,179.050012 3.55,176.55 C2.3833275,174.049988 1.8,171.200016 1.8,168 C1.8,164.466649 2.5166595,161.350014 3.95,158.65 C5.3833405,155.949987 7.299988,153.850008 9.7,152.35 C12.100012,150.849993 14.666653,149.750004 17.4,149.05 C20.133347,148.349997 23.033318,148 26.1,148 C27.833342,148 29.666657,148.116666 31.6,148.35 C33.533343,148.583335 35.5833225,148.966664 37.75,149.5 C39.9166775,150.033336 41.6833265,150.866661 43.05,152 C44.4166735,153.133339 45.1,154.466659 45.1,156 C45.1,157.466674 44.633338,158.983325 43.7,160.55 C42.766662,162.116675 41.500008,162.9 39.9,162.9 C39.299997,162.9 37.66668,162.266673 35,161 C32.33332,159.733327 29.366683,159.1 26.1,159.1 C22.499982,159.1 19.7166765,159.783327 17.75,161.15 C15.7833235,162.516674 14.8,164.399988 14.8,166.8 C14.8,168.733343 15.599992,170.41666 17.2,171.85 C18.800008,173.283341 20.7833215,174.449995 23.15,175.35 C25.5166785,176.250005 28.0833195,177.383327 30.85,178.75 C33.6166805,180.116674 36.1833215,181.599992 38.55,183.2 C40.9166785,184.800008 42.899992,187.116651 44.5,190.15 C46.100008,193.183349 46.9,196.733313 46.9,200.8 C46.9,207.733368 44.7166885,213.083315 40.35,216.85 C35.9833115,220.616686 30.233369,222.5 23.1,222.5 C16.766635,222.5 11.333356,221.200013 6.8,218.6 C2.266644,215.999987 0,213.166682 0,210.1 Z M63.3,217.5 L63.3,152.6 C63.3,151.333327 63.866661,150.333337 65,149.6 C66.133339,148.866663 67.466659,148.5 69,148.5 L104.6,148.5 C105.93334,148.5 106.949996,149.066661 107.65,150.2 C108.350004,151.333339 108.7,152.633326 108.7,154.1 C108.7,155.700008 108.333337,157.066661 107.6,158.2 C106.866663,159.333339 105.866673,159.9 104.6,159.9 L76.3,159.9 L76.3,179.9 L91.5,179.9 C92.766673,179.9 93.766663,180.416662 94.5,181.45 C95.233337,182.483339 95.6,183.699993 95.6,185.1 C95.6,186.366673 95.2500035,187.516662 94.55,188.55 C93.8499965,189.583339 92.83334,190.1 91.5,190.1 L76.3,190.1 L76.3,210.2 L104.6,210.2 C105.866673,210.2 106.866663,210.766661 107.6,211.9 C108.333337,213.033339 108.7,214.399992 108.7,216 C108.7,217.466674 108.350004,218.766661 107.65,219.9 C106.949996,221.033339 105.93334,221.6 104.6,221.6 L69,221.6 C67.466659,221.6 66.133339,221.233337 65,220.5 C63.866661,219.766663 63.3,218.766673 63.3,217.5 Z M123.8,217.5 L123.8,152.6 C123.8,151.333327 124.366661,150.333337 125.5,149.6 C126.633339,148.866663 127.966659,148.5 129.5,148.5 L165.1,148.5 C166.43334,148.5 167.449996,149.066661 168.15,150.2 C168.850004,151.333339 169.2,152.633326 169.2,154.1 C169.2,155.700008 168.833337,157.066661 168.1,158.2 C167.366663,159.333339 166.366673,159.9 165.1,159.9 L136.8,159.9 L136.8,179.9 L152,179.9 C153.266673,179.9 154.266663,180.416662 155,181.45 C155.733337,182.483339 156.1,183.699993 156.1,185.1 C156.1,186.366673 155.750003,187.516662 155.05,188.55 C154.349997,189.583339 153.33334,190.1 152,190.1 L136.8,190.1 L136.8,210.2 L165.1,210.2 C166.366673,210.2 167.366663,210.766661 168.1,211.9 C168.833337,213.033339 169.2,214.399992 169.2,216 C169.2,217.466674 168.850004,218.766661 168.15,219.9 C167.449996,221.033339 166.43334,221.6 165.1,221.6 L129.5,221.6 C127.966659,221.6 126.633339,221.233337 125.5,220.5 C124.366661,219.766663 123.8,218.766673 123.8,217.5 Z M184.3,217.6 L184.3,152.5 C184.3,151.433328 184.833328,150.500004 185.9,149.7 C186.966672,148.899996 188.333325,148.5 190,148.5 L207.7,148.5 C214.833369,148.5 220.533312,150.333315 224.8,154 C229.066688,157.666685 231.2,163.466627 231.2,171.4 L231.2,198.7 C231.2,206.633373 229.066688,212.433315 224.8,216.1 C220.533312,219.766685 214.833369,221.6 207.7,221.6 L190,221.6 C188.333325,221.6 186.966672,221.200004 185.9,220.4 C184.833328,219.599996 184.3,218.666672 184.3,217.6 Z M197.3,210.2 L207.7,210.2 C214.700035,210.2 218.2,206.366705 218.2,198.7 L218.2,171.4 C218.2,163.733295 214.700035,159.9 207.7,159.9 L197.3,159.9 L197.3,210.2 Z" id="SEED" fill="#74BA00"></path>
        </g>
    </g>
</svg>